<svg xmlns="http://www.w3.org/2000/svg" version="1.1" xmlns:xlink="http://www.w3.org/1999/xlink" width="1000" height="1000"><g clip-path="url(#SvgjsClipPath1505)"><rect width="1000" height="1000" fill="#4c6139"></rect><g transform="matrix(0.532286503210353,0,0,0.532286503210353,100,394.0324029408829)"><svg xmlns="http://www.w3.org/2000/svg" version="1.1" xmlns:xlink="http://www.w3.org/1999/xlink" width="1502.95" height="398.16"><svg viewBox="0 0 1502.95 398.16">
  <defs>
    <style>
      .cls-3, .cls-4 {
        fill: #ffffff;
      }
    </style>
  <clipPath id="SvgjsClipPath1505"><rect width="1000" height="1000" x="0" y="0" rx="500" ry="500"></rect></clipPath></defs>
  <g>
    <g>
      <path class="cls-3" d="m296.08,175.39c-20.48,2.9-40.64,8.23-60.36,14.46-31.17,9.84-61.57,22.36-90.6,37.38-16.76,8.67-33.08,18.22-48.75,28.74-13.83,9.29-27.5,18.88-40.36,29.49s-24.17,21.64-33.89,34.6c-4.94,6.59-9.32,13.58-13.1,20.9-3.38,6.56-6.48,13.41-7.94,20.68-1.3,6.44-1.69,13.51.35,19.84s6.79,11.72,13.32,14.25c16.55,6.39,34.54-.74,48.32-10.24,6.9-4.75,13.21-10.32,19.27-16.1s11.6-11.25,17.07-17.19c11.18-12.17,21.42-25.2,31.22-38.5,15.66-21.26,29.73-43.48,43.28-66.13,14.49-24.22,28.64-48.64,42.59-73.17,15.21-26.75,30.19-53.63,44.85-80.69,12.96-23.9,25.72-47.93,37.81-72.29,2.36-4.76,4.69-9.53,6.97-14.32l-9.5-2.72c-11.61,47.28-23.21,94.56-34.82,141.84-5.72,23.32-11.46,46.63-17.17,69.95s-11.16,46.02-15.68,69.27c-5.04,25.92-8.73,52.09-9.96,78.48-.08,1.69,2.74,3.01,3.99,3.37,1.8.52,3.68.44,5.17-.74,3.89-3.11,5.3-8.26,4.39-13.03-.66-3.43-9.57-4.9-8.83-1.05.66,3.45-.79,7.3-3.62,9.43l8.49,3.16c2.2-47.05,12.66-93.21,23.76-138.82,11.36-46.66,22.89-93.28,34.33-139.91,6.48-26.41,12.96-52.81,19.45-79.22.98-3.98-7.81-6.27-9.5-2.72-10.66,22.38-22.16,44.37-33.83,66.24-13.97,26.21-28.3,52.22-42.86,78.11s-28.69,50.55-43.42,75.59c-12.27,20.85-24.53,41.75-38.08,61.8-17.69,26.17-36.77,51.65-59.3,73.87-11.48,11.32-23.68,22.88-38.95,28.85-6.74,2.63-14.21,4.24-21.04,2.33-1.11-.31-2.35-.84-2.99-1.27-1.21-.83-1.82-1.32-2.88-2.67-1.37-1.76-2.52-4.57-3.06-7.05-3.02-13.68,3.26-27.78,9.7-39.5,7.64-13.89,17.8-26.3,29.09-37.37s24.26-21.26,37.38-30.64c14.48-10.35,29.32-20.19,44.71-29.14,28.91-16.82,59.48-30.89,90.88-42.38,21.86-7.99,44.13-15.06,66.75-20.58,3.18-.78,6.37-1.5,9.58-2.15.95-.19,1.2-1.03.71-1.78-.55-.83-1.99-1.37-2.95-1.23h0Z"></path>
      <path class="cls-3" d="m299.87,192.68c-.1-.54-.31-1.14.02-1.61.36-.51.83-.72,1.08-1.35.22-.56.09-1.22.13-1.83s.11-1.26.24-1.87c.25-1.17.73-2.33,1.16-3.45.46-1.2.86-2.42,1.38-3.6l-9.26-2.66c-5.34,17.32-10.6,35.11-9.11,53.45.14,1.71,2.56,2.99,3.98,3.36s4.11.72,5.15-.74c7.43-10.33,14.58-20.89,22.23-31.07.61-.81,1.23-1.62,1.85-2.42.32-.41.63-.82.96-1.22.27-.33.53-.66.83-.97.13-.13.25-.27.39-.38-.02.02.32-.11.31-.18l-.15.06c-.67.32-1.39.2-2.15-.33l-2-.4c-.36-.32-.43-.37-.22-.14.18.28.46.54.66.8.44.55.89,1.07,1.42,1.54,1.46,1.33,3.06,2.38,4.82,3.28,6.45,3.29,14.36,4.03,21.43,2.9,3.92-.63,7.61-2.41,11.1-4.25,3.83-2.01,7.43-4.41,11.09-6.69l-8.44-3.95c-1.5,5.64-3.11,11.24-4.85,16.81-.85,2.71-1.72,5.4-2.62,8.09-.47,1.38-.91,2.76-1.3,4.17-.19.69-.46,1.4-.56,2.11-.13.89.15,1.82.3,2.7.44,2.57,4.99,3.5,6.73,1.93.6-.54,1.31-1.05,1.74-1.73s.67-1.41.97-2.12c.57-1.35,1.08-2.71,1.55-4.1.93-2.76,1.83-5.54,2.7-8.32,1.74-5.57,3.35-11.17,4.84-16.81.44-1.65-1.42-3.13-2.71-3.7-1.64-.73-4.08-1.28-5.73-.25-3.28,2.05-6.51,4.18-9.89,6.05-1.66.92-3.36,1.76-5.09,2.53-.48.21-.96.42-1.44.62-.14.06-1.05.41-.43.18.49-.18.05-.02-.04,0-.67.2-1.33.41-2.02.57-.34.08-.68.13-1.01.2-.22.04-.78.08.19-.02-.15.02-.31.04-.46.06-.79.08-1.58.15-2.37.18-.38.01-.76.02-1.14.02s-1.38.2-.27,0c-.74.13-1.74-.12-2.48-.21-.19-.02-2.12-.33-2.12-.34.02-.08,1.08.25.33.06-.16-.04-.32-.08-.47-.12-.42-.1-.83-.22-1.24-.34-.23-.07-.8-.38-1.05-.35.5-.06.92.38.36.13-.14-.06-.28-.12-.42-.18-.32-.14-.64-.29-.96-.44-.08-.04-.49-.29-.52-.27.09-.04.89.56.3.17-.28-.18-.56-.36-.82-.55-.11-.08-.22-.17-.33-.25-.64-.45.22.13.2.19.02-.08-1.3-1.39-1.42-1.54-1.94-2.44-4.94-4.06-8.12-3.92-3.78.16-5.75,2.9-7.85,5.64-2.94,3.85-5.74,7.8-8.54,11.75-4.9,6.92-9.79,13.84-14.74,20.73l9.13,2.62c-1.44-17.73,3.8-35.13,8.82-51.92.61-2.05-2.27-3.65-3.85-4.06-1.79-.46-4.54-.64-5.42,1.4-.56,1.32-1.09,2.65-1.33,4.06s-.22,2.92-.27,4.39-.1,3.03.67,4.25c.52.83,1.5,1.22,2.03,1.99.13.18.55,1.14.81,1.54.48.76,3.65,1.76,3.35.12h0Z"></path>
      <path class="cls-3" d="m369.36,155.2v.1c0-.25.02-.5.04-.75-.09,1.38-.37,2.77-1.04,3.99l.38-.68c-.27.48-.58.93-.95,1.34-.09.1-.19.2-.28.3-.26.26-.41.57-.56.91-.09.21-.18.42-.29.62l.35-.63c-.13.23-.27.45-.42.66-.85,1.14.05,2.46,1.05,3.13,1.43.95,3.17,1.34,4.86,1,.41-.08.82-.19,1.22-.33.89-.31,1.71-.58,2.38-1.27s1.15-1.53,1.59-2.38c.78-1.49,1.09-3.32.66-4.96-.24-.92-.82-1.6-1.59-2.16-.92-.65-2.23-1.15-3.35-1.25-.97-.08-2.16-.11-3.01.44l-.63.5c-.35.4-.48.87-.4,1.4h0Z"></path>
      <path class="cls-3" d="m387.6,199.37l3.83-3.97c.64-.66,1.52-1.21,2.02-1.94.53-.76.9-1.72,1.33-2.54l-9.05-2.59c-5.03,12.06-8.6,24.69-10.62,37.61-.3,1.89,1.61,3.14,3.14,3.71,1.29.48,4.57,1.14,5.46-.48,2.31-4.19,4.86-8.26,7.54-12.23,2.86-4.25,5.34-8.74,8.27-12.95,2.49-3.58,5.15-7.14,8.35-10.11,1.07-.99,2.19-1.72,3.43-2.47.29-.18.83-.33.03-.08.09-.03.21-.08.3-.09.41-.02.06-.08.57-.09.39-.01-.28.15.04,0,.23-.11.25.21.11,0-.12-.17-1.05-.18-.6-.22.08.05.15.11.23.17-.18-.16-.19-.17-.05-.03.21.18.44.59.5.76.19.55.24,1.15.25,1.73,0,1.14-.39,2.66-.78,3.9-.54,1.71-1.32,3.32-1.98,4.97s-1.22,3.37-1.84,5.05c-1.03,2.77-2.27,5.66-2.59,8.62-.12,1.09-.15,2.26.45,3.23.91,1.45,2.69,2.1,4.33,2.12.93.01,1.87-.15,2.75-.44.97-.32,1.74-.84,2.57-1.34.98-.59,2.15-.99,3.15-1.59,1.17-.69,2.3-1.45,3.41-2.23,2.21-1.57,4.35-3.26,6.43-4.99,1.24-1.03,2.86-1.35,4.38-1.82,1.29-.4,2.58-.8,3.88-1.18l-1.88.1c1.6.26,2.88,0,4.16-.9.74-.53,1.5-1.04,2.25-1.56,1.8-1.25,3.6-2.52,5.45-3.7,3.71-2.39,7.28-4.26,11.55-5.03,1.45-.26,2.31-1.65,1.61-2.98-.83-1.58-3-2.48-4.67-2.64-6.87-.69-13.75,1.23-19.19,5.51-5.08,3.98-9,9.76-9.85,16.25-.25,1.89-.65,4.14.72,5.66.84.93,1.99,1.66,3.14,2.13,2.74,1.13,5.69,1.24,8.55.48,5.19-1.36,9.78-4.73,13.84-8.11,4.81-4.01,9.17-8.73,12.09-14.3.36-.7-.37-1.8-.78-2.25-.73-.79-1.93-1.42-2.95-1.69-1.91-.49-4.2-.55-5.25,1.36-2.77,5.04-5.3,10.59-2.92,16.29,2.56,6.14,10.16,9.1,16.3,6.86,5.02-1.83,9.76-5.09,13.99-8.3s8.44-6.99,12.08-11.09c4.08-4.59,7.49-9.66,10.41-15.05.37-.69-.37-1.88-.8-2.31-.69-.69-1.52-1.17-2.43-1.51-1.46-.55-4.53-1.11-5.61.5-3.82,5.65-5.43,12.36-4.9,19.15.26,3.35,1.11,6.63,2.39,9.74.7,1.71,1.91,3.16,3.12,4.55s2.74,3.24,4.48,3.95l-1.05-.74c.53.61,1.12,1.11,1.78,1.57.25.18.51.35.76.52.13.09.8.55.33.07.44.45.67,1.29.68,1.9.01.53-.15,1.01-.35,1.5-.32.75-.73,1.05-1.46,1.41-2.42,1.19-6.04,1.9-8.67.97-.72-.26-1.43-.92-.76-1.54.54-.49,1.64-.78,2.3-1.1s1.27-.62,1.91-.94c1.52-.76,3.04-1.53,4.55-2.32,5.56-2.91,11.1-5.99,16.34-9.45,10.47-6.91,20.38-14.67,29.6-23.18,9.12-8.41,17.76-17.55,25.26-27.45,6.67-8.8,12.28-18.79,15.85-29.26,1.65-4.82,2.8-9.81,2.95-14.92.06-2.05-.08-4.12-.55-6.11-.5-2.1-1.32-4.64-2.88-6.2-2.44-2.43-6.3-3.46-9.63-2.69-2.5.58-4.62,2.22-6.39,4.01-3.46,3.49-5.87,7.91-8.26,12.16-5.74,10.18-10.54,21.02-14.83,31.94-8.58,21.8-15.49,44.66-18.86,67.89-.36,2.46-.66,4.93-.92,7.4-.17,1.66,1.15,2.89,2.58,3.53s3.99,1.29,5.46.24c11.46-8.15,23.28-17.31,30.25-29.8l-8.02-3.01c-.48,2.32-.8,4.65-.99,7.01-.18,2.23-.22,4.52.44,6.69,1.84,6.09,7.65,9.21,13.72,9.74s12.18-.25,18.09-1.03c6.24-.83,12.38-2.12,18.43-3.85,3.17-.91,6.31-1.92,9.41-3.05,3.33-1.21,6.38-2.91,9.61-4.32,1.75-.76.55-2.76-.49-3.5-1.57-1.11-3.73-1.46-5.5-.7-2.49,1.08-5.21,1.71-7.77,2.6s-5.13,1.73-7.73,2.49c-5.21,1.52-10.49,2.66-15.83,3.65s-10.04,1.63-15.56,2.02c-1.09.08-2.17.12-3.26.14-1.26.02.44.08-.3,0-.26-.03-.53-.04-.8-.07s-.52-.08-.79-.11c-.33-.05-.26-.04.2.05-.19-.04-.38-.09-.57-.15-.14-.04-.88-.35-.37-.11.62.28-.53-.29-.51-.28.78.47-.77-.77-.1-.11-.88-.86-.84-.8-1.37-1.91-.78-1.62-1.02-4.1-.94-6.18.08-2.22.72-4.46,1.32-6.59.48-1.7-1.66-2.99-2.93-3.46s-4.13-1.02-5.09.45c-3.76,5.78-8.58,10.98-13.62,15.67s-10.42,8.85-15.99,12.81l8.05,3.77c2.35-22.97,8.82-45.64,16.73-67.26,4.09-11.17,8.71-22.17,14.05-32.81,2.29-4.57,4.47-9.17,7.17-13.43,1.33-2.1,2.83-4.15,4.66-5.83.7-.65,1.09-.93,2.15-1.45.44-.22-.71.14.06-.02.31-.06.92-.03.03-.04.88,0-.96-.11-.08,0-.17-.02-1.75-.46-.98-.22l-.43-.24c.47.36.34.19-.38-.51-.02.08.34.56.39.64.21.36.4.74.58,1.12s.34.78.49,1.18c-.2-.55.07.26.09.31.1.34.19.68.28,1.03.48,2.03.64,4.14.61,6.22-.08,4.83-1.34,9.88-2.86,14.53-3.42,10.46-8.75,20.41-15.34,29.22-7.48,10-15.81,19.37-24.85,27.99s-18.88,16.26-29.1,23.47c-5.05,3.56-10.26,6.91-15.6,10.03-1.3.76-2.61,1.51-3.93,2.24-.79.44-1.48.64-1.36,1.65s.99,1.66,1.86,2.03c2.47,1.07,5.69.62,8.16-.19.65-.22,1.3-.47,1.91-.8.56-.29,1.03-.78,1.58-1.04,1.24-.6,2.33-1.29,2.74-2.74.54-1.91-.87-3.61-2.06-4.99l.46,1.33c.24-1.21-1-2.88-1.37-3.93-.47-1.31-.85-2.92-1.41-4.31-.91-2.24-1.61-5.39-1.82-8.19-.42-5.63,1.02-11.77,4.21-16.41l-8.47-3.99c-4.54,8.21-10.52,15.64-17.6,21.8-3.43,2.99-7.17,5.64-11.16,7.98-.92.54-1.85,1.06-2.79,1.56-.57.3-1.14.61-1.74.85-.64.26.32-.09-.33.12-.19.06-1.11.28-.92.25.45-.05-.8-.07-.11,0h.21c-.53-.08-.43-.05.29.06.11.03,1.05.46.29.1-.59-.28.03.15.18.11-.06.01-.52-.39-.52-.38.67.53.2.17.09.02-.13-.17-.3-.33-.43-.49.44.54-.12-.22-.2-.35-.63-1.08-.78-1.53-.97-2.71s-.08-2.41.19-3.62c.64-2.9,2.08-5.55,3.48-8.13l-8.98-2.58c-.08.15-.37.68-.13.26-.16.28-.32.55-.48.82-.32.52-.66,1.03-1.01,1.54-.78,1.12-1.61,2.19-2.49,3.23-1.84,2.18-3.86,4.21-5.99,6.09-.53.46-1.06.92-1.6,1.37-.13.11-.65.52-.56.45.22-.18-.19.14-.19.14-.17.13-.33.26-.5.38-1.09.83-2.22,1.61-3.38,2.34-1.02.64-2.07,1.24-3.15,1.77-.49.24-1.01.44-1.5.68.5-.24.36-.13-.04,0-.28.1-.57.19-.86.28-.24.07-.48.13-.72.19-.18.04-1.13.22-.38.09.71-.13-.05-.02-.24,0-.83.08.46.04.36.03-.98-.09.47.13.41.12-.79-.21,1.04.48.51.21-.46-.23,1.05.74.35.2.39.31.71.68.24.16l.82,1.49c-.18-5.85,2.65-11.45,6.88-15.52,1.88-1.8,4.64-3.59,6.96-4.51-.2.08.73-.26.88-.31.33-.11.66-.21,1-.3s.67-.17,1.01-.25c.12-.03,1.3-.25.85-.18s.74-.08.87-.09c.35-.03.69-.05,1.04-.06s.7-.01,1.04,0c-1.12-.01.4.05.61.07l-3.07-5.62c-8.08,1.46-15.19,6.71-21.65,11.5-.91.68-1.37,1.54-.76,2.64l.14.26-.2-1.31c-.35.8-.68,1.6-1.01,2.41-.36.9-.63,2.16-1.24,2.92-.34.42-1.04.79-1.48,1.12-.53.4-1.06.8-1.6,1.19-1.08.79-2.17,1.57-3.27,2.32-3.49,2.36-7.24,5.03-11.48,4.76-.53-.03-.49-.06-.83-.13.55.12.34.14.14.04.8.41-.18-.19.48.33-.02-.02-.1-.12-.11-.13l.18.23s-.06-.1-.08-.15c.02,0,.07.23.03.06-.03-.13-.06-.26-.1-.38-.14-.38-.07-.72-.03-1.03.08-.61.22-1.2.38-1.79.89-3.11,2.36-6.06,3.66-9.02,1.4-3.18,2.52-6.48,2.87-9.97.28-2.78-.04-5.66-2.48-7.42-2.82-2.03-6.26-.79-8.9.69-3.64,2.05-6.83,4.97-9.8,7.87-4.18,4.06-8.37,8.44-11.84,13.13-3.24,4.36-6.08,9.14-8.71,13.89l8.61,3.23c2.05-12.91,5.65-25.53,10.7-37.58.32-.75-.32-1.76-.78-2.27-.73-.8-1.94-1.43-2.97-1.7-1.88-.49-4.28-.57-5.29,1.37-.35.67-.96,1.48-1.15,2.21-.11.42.02.86.01,1.27,0,.38-.14.84-.21,1.21l-.83,4.84c-.29,1.73,3.01,2.57,4.04,1.51h0Z"></path>
      <path class="cls-3" d="m780.04,149.38c-2.16,3.36-4.34,6.66-6.27,10.15s-3.82,6.94-5.73,10.41l9,3.38c7.27-13.35,13.69-27.15,19.2-41.32,2.72-6.99,5.23-14.07,7.51-21.22s4.35-13.86,5.87-20.93c1.44-6.7,2.3-13.81,1.09-20.62s-4.42-12.69-9.42-17.13c-10.98-9.75-26.22-11.97-40.26-9.2-7.5,1.48-14.7,4.34-21.62,7.53-6.18,2.85-12.2,6.05-18.03,9.55-11.64,6.98-22.55,15.16-32.73,24.12-20.51,18.04-38.33,39.36-53.09,62.31s-26.89,48.72-33.48,75.65c-3.3,13.49-5.2,27.29-5.58,41.17s.72,29.25,6.7,42.58c10.37,23.07,34.67,36.67,58.77,40.74,28.45,4.8,57.25-4.6,82.27-17.59s48.68-29.85,69.75-48.87c10.5-9.47,20.68-19.5,29.55-30.53s17.45-21.79,22.31-34.7c1.19-3.15,2.53-6.26,3.66-9.45.57-1.61.98-3.24,1.34-4.91s.5-3.43.94-5.05c.3-1.11-2.44-1.9-2.74-.79-.89,3.24-2.83,6.35-4.17,9.42s-2.89,6.23-4.83,9.13c-3.77,5.65-7.61,11.29-11.65,16.75-4.07,5.49-8.49,10.67-13.13,15.69s-9.43,10.22-14.28,15.2c-19.04,19.51-40.4,36.7-63.54,51.12-23.22,14.46-49.13,27.56-76.76,29.38-1.77.12-3.54.19-5.31.21-.78.01-1.57.01-2.35,0-.36,0-.72-.01-1.09-.02-1.43-.03.91.05-.52-.02-2.91-.14-5.81-.41-8.69-.84-1.3-.19-2.6-.42-3.89-.67,1.15.22-.28-.06-.43-.09-.29-.06-.57-.13-.86-.19-.86-.19-1.71-.4-2.56-.62-1.27-.33-2.54-.69-3.8-1.08-.7-.22-1.39-.44-2.08-.68-.28-.09-.55-.19-.83-.29-.14-.05-1.59-.58-1.03-.37.71.26-.63-.25-.61-.24-.27-.11-.54-.21-.81-.32-.67-.27-1.35-.55-2.01-.85-1.33-.58-2.64-1.2-3.94-1.85-.65-.33-1.29-.66-1.92-1-.25-.14-.51-.28-.76-.42-.08-.04-1.32-.75-.45-.25-1.24-.73-2.46-1.49-3.66-2.29-4.86-3.24-8.31-6.17-12.21-10.62-3.62-4.12-6.59-8.8-8.9-14.05-2.83-6.45-4.35-13.43-5.17-20.41-1.57-13.37-.89-27.08,1.01-40.38,3.77-26.44,13.03-51.89,25.66-75.34s28.76-45.14,47.11-64.38,38.93-35.5,62.57-47.02c6.25-3.05,12.67-5.83,19.41-7.61s12.67-2.26,18.94-1.18c-.97-.17.01,0,.25.06.37.08.73.17,1.09.27.65.17,1.3.36,1.94.56.36.11.71.23,1.06.36.93.32.22.08.03,0,.83.33,1.65.69,2.45,1.08,1.85.9,4.32,2.52,5.91,4.04,4.29,4.1,6.58,9.57,7.23,15.63.7,6.59-.46,13.21-2.02,19.6-1.68,6.86-3.76,13.63-5.96,20.34-4.58,14-10.01,27.73-16.25,41.07-3.02,6.46-6.22,12.84-9.6,19.12-.39.72.39,1.89.81,2.35.76.83,2.01,1.48,3.08,1.76,1.99.51,4.39.57,5.48-1.42l5.68-10.43c1.88-3.45,3.46-7.01,5.1-10.59.7-1.53-1.82-2.98-2.84-3.36-1.26-.46-4.02-1-4.94.44h0Z"></path>
      <path class="cls-3" d="m977.15,152.58c-2.35.61-4.79.78-7.11,1.36s-4.68,1.17-7.1,1.27c-4.32.16-8.78-.06-13.04-.78-8.03-1.37-15.99-5.5-22.12-10.82-13.98-12.12-20.01-31.43-19.4-49.5.67-20.1,10.05-39.22,22.38-54.7,6.1-7.65,13.02-14.85,20.92-20.66s16.95-10.75,26.6-12.24c1.85-.29,3.75-.4,5.58-.16,1.41.19,3.15.86,4.2,1.77,2.69,2.33,3.91,5.89,4.44,9.4,1.35,8.99-1.24,18.19-3.17,26.9-4.82,21.79-10.76,43.33-17.24,64.68-13,42.79-28.2,84.88-41.35,127.62-6.52,21.19-12.53,42.54-17.48,64.15-2.49,10.85-4.71,21.77-6.59,32.74s-3.85,21.41-3.2,32.17c.32,5.32,1.49,10.47,3.61,15.36.66,1.52,2.9,2.42,4.35,2.7,1.26.24,3.67.42,4.52-.88,1.51-2.28,2.46-4.92,3.55-7.41.62-1.4-1.63-2.7-2.58-3.05-1.34-.49-3.39-.79-4.48.4-1.77,1.92-3.78,3.77-5.22,5.95l8.87,1.82c-4.42-10.2-3.37-21.77-1.82-32.48,1.65-11.34,3.74-22.62,6.11-33.84,4.8-22.69,10.86-45.1,17.54-67.31,6.67-22.17,13.97-44.15,21.29-66.12,7.36-22.09,14.75-44.18,21.57-66.45,6.77-22.11,12.97-44.41,17.97-66.99,2.07-9.31,4.77-19.21,3.34-28.83-.64-4.24-2.27-8.35-5.17-11.56-3.77-4.18-9.4-6.5-14.93-6.97-10.61-.9-21.55,3.44-30.55,8.72s-16.78,12.14-23.7,19.75c-14.17,15.56-25.35,34.94-28.17,56.05-2.61,19.53,2.18,40.44,15.34,55.45,6.5,7.41,15.16,13.24,24.57,16.23,4.45,1.41,9.18,2.41,13.84,2.82,2.34.2,4.84.42,7.18.14s4.4-.81,6.59-1.27c1.98-.41,4.28-.84,6.1-1.74,1.56-.78,3.09-2.21,4.42-3.36.21-.18-.34-.35-.45-.32h0Z"></path>
      <path class="cls-3" d="m991.06,188.52c.65-1.55,1.22-3.16,2.1-4.59s1.24-3.39,1.65-5.03c.47-1.85-1.77-3.22-3.17-3.75-1.32-.49-4.59-1.14-5.51.49-2.42,4.3-4.3,8.9-6.21,13.45s-3.64,8.92-5.41,13.39c-3.06,7.69-6.6,15.12-7.71,23.39-.51,3.79,6.82,6.03,9.12,3.42,5.36-6.08,10.15-12.66,15.1-19.07,4.62-5.99,9.26-12.2,14.85-17.35.32-.3.65-.59.98-.88.14-.12.29-.25.44-.37.09-.07.61-.48.18-.15s.11-.08.17-.12c.17-.12.33-.24.5-.36.26-.18.53-.36.81-.53.37-.23,1.28-.48,1.52-.8-.31.41-.9.29-.4.16.12-.03.24-.07.35-.11,1.05-.36-.97.07-.15,0l-3.74-.77c-.44-.26-.96-.49-1.31-.88-.02-.03-.66-.73-.24-.31.09.09.1.27.18.37-.04-.05-.13-.62-.1-.29.07.71.29,1.4.33,2.13.02.33.02.67.02,1,0,.13-.03,1.01,0,.55-.05.86-.15,1.71-.26,2.56-.33,2.59-.77,5.18-1.26,7.74-.58,2.98-1.18,5.96-1.39,8.99-.19,2.74-.27,5.77,1.35,8.15,2.32,3.42,6.86,4.71,10.79,3.9,2.18-.45,4.26-1.61,6.12-2.79,5.39-3.44,10.21-7.86,14.62-12.46,2.6-2.72,5.18-5.59,7-8.89,1.61-2.91,3.06-5.92,4.32-9,.65-1.59-3.16-2.58-4.04-1.51-3.29,3.99-7.44,7.14-11.1,10.76-3.85,3.8-7.71,7.59-11.82,11.11-.46.39-.93.79-1.39,1.17-.23.19-.46.37-.69.56-.75.61.52-.39-.23.19-.93.71-1.86,1.42-2.83,2.08-1.45,1-2.95,1.89-4.55,2.63-.84.39.88-.23-.2.07-.25.07-.64.1-.86.22.7-.38,1.11-.12.57-.09-.45.02-.78-.12.74.05-.42-.05-.65-.2.67.16-.49-.14-.26-.05.69.28-.42-.2-.23-.09.57.35-.61-.42.79.8.29.25-.46-.51.4.84.14.2-.06-.15-.18-.37-.27-.51-.37-.53.13.7,0,.04-.19-1.03-.38-2-.4-3.06,0-.27,0-.53,0-.8,0-.07.05-.97,0-.31.04-.58.09-1.15.16-1.73.14-1.19.32-2.37.53-3.55.39-2.24.88-4.46,1.25-6.7.34-2.12.7-4.26.9-6.4.23-2.47.44-5.18-.65-7.5-1.65-3.5-6.07-4.83-9.61-3.74-1.72.53-3.23,1.43-4.64,2.52-3.69,2.83-6.81,6.32-9.79,9.86-7.92,9.4-14.8,19.65-22.93,28.88l9.12,3.42c1.1-8.18,4.56-15.56,7.54-23.19,1.72-4.41,3.44-8.82,5.24-13.19s3.94-8.83,5.73-13.31l-9.05-2.59c-.12,1.77-.51,3.99-.11,5.71s.44,3.69.57,5.53,4.11,2.7,4.83.98h0Z"></path>
      <path class="cls-3" d="m1070.19,193.49c.36.36.7.78,1.09,1.1l-.24-.39c.35.59.81,1.08,1.38,1.46.82.55,1.72.9,2.66,1.16,1.76.48,4.57.63,5.42-1.41,2.54-6.09-2.37-12.22-7.47-14.99-6.73-3.64-14.99-2.28-21.37,1.41-5.47,3.17-10.26,7.81-13.74,13.09-1.76,2.67-3.6,5.69-4.31,8.84-.86,3.79.37,7.28,3.44,9.66s7.51,3.37,11.42,2.67c3.18-.56,5.99-2.36,8.5-4.68,2.33-2.16,4.38-4.63,6.54-6.96s4.32-4.77,6.39-7.23c8.29-9.85,15.63-20.51,21.91-31.74,7.1-12.69,12.67-26.06,17.3-39.84.54-1.62-1.69-2.93-2.85-3.36-1.24-.46-4.05-1-4.95.44-6.65,10.71-12.21,22.24-16.89,33.94s-8.38,23.38-11.36,35.43c-1.51,6.1-2.79,12.25-3.85,18.45s-2.37,12.99,2.37,17.86c2.42,2.49,5.92,4.02,9.41,3.89,3.27-.12,5.75-1.87,8.16-3.9,4.71-3.98,9.2-8.17,13.44-12.64,4.71-4.97,9.2-10.11,13.12-15.74s7.4-11.26,10.56-17.24c.5-.94-2.03-1.67-2.59-.97-7.48,9.12-15.47,17.81-23.67,26.27-4,4.13-8.19,8.09-12.43,11.98-2.05,1.88-4.1,3.8-6.28,5.54-.81.65-1.75,1.29-2.69,1.57-1.08.31-.07-.05-.08.05h.15c-.47-.05-.46-.04.04.05-.49.22-.29-.32.04.03-.4-.2-.42-.2-.05-.01-.15-.1-.29-.2-.43-.31-.46-.36.43.54-.25-.24-.16-.18-.33-.35-.48-.54-.1-.13-.52-.83-.68-1.19-.55-1.18-.72-2.56-.77-3.87-.13-2.93.55-5.9,1.06-8.78,1.02-5.74,2.23-11.45,3.63-17.11,2.82-11.4,6.47-22.59,10.85-33.49,4.92-12.24,10.8-23.96,17.16-35.5l-7.79-2.92c-6.12,22.1-17.22,43.04-31.03,61.29-3.51,4.64-7.22,9.12-11.12,13.44-1.94,2.14-3.93,4.22-6.01,6.22s-4.07,3.97-6.59,5.29c-.62.32-.82.35-1.48.57-.18.06-.74.08.02.02-.27.02-.78.15-1.03.06.08.03,1.05.1.17-.01-.28-.04-.56-.07-.84-.1-.71-.07,1.2.36.15,0,1.59.55.09.15.02-.03l.5.28c-.38-.28-.36-.24.08.12-.16-.15-.3-.3-.45-.46.53.57-.25-.52-.29-.64-.43-1.35-.08-2.81.35-4.11,1.68-5.06,5.31-9.69,9.11-13.34,2.2-2.11,4.48-3.85,7.2-5.33,1.56-.85,2.59-1.3,4.18-1.73.27-.07.54-.14.81-.2.27-.06.54-.11.81-.16-.33.05-.35.06-.05.02.34-.03.68-.06,1.03-.08.3-.01,1.24.08.44,0,.41.04.82.1,1.23.16-1.26-.19.16.1.18.09-.65.07-.79-.33-.12-.03,1.09.5-.47-.39.29.13.18.12.37.27.56.38.37.29.36.27-.03-.06.17.15.33.3.49.46.16.16.32.32.47.49.15.17.29.34.43.52-.2-.28-.22-.31-.08-.09.34.51.61,1.04.89,1.59.41.81-.06-.44.16.43.08.31.16.62.21.94.2,1.24.12,1.96-.44,3.31l5.42-1.41c-.94-.25-1.9-.47-2.88-.41-.53,0-1.03.11-1.5.33-.58.23-.59.23-.04,0-.51.11-1.02.28-1.53.41-.9.24-1.22,1.11-.52,1.82h0Z"></path>
      <path class="cls-3" d="m1124.28,187.14c1.38-.96,2.76-1.9,4.1-2.92l-6.68-3.13c-1.67,3.12-2.73,6.73-3.87,10.06s-2.14,6.69-3.03,10.09c-.81,3.07-1.95,6.56-1.58,9.77s3.02,5.63,5.98,6.48c5.62,1.61,10.73-1.58,14.89-4.99,4.71-3.86,8.8-8.23,12.57-13,2.12-2.68,4.07-5.41,5.6-8.46s3.65-5.79,4.57-9.14c.21-.75-1.43-1.2-1.84-.69-1.76,2.17-3.11,4.64-4.7,6.94s-3.52,4.39-5.29,6.55c-3.54,4.34-7.53,8.28-11.76,11.96-1.99,1.73-4,3.47-6.16,4.98-1.6,1.12-3.54,2.19-5.47,2.45-.07.01-1.07.14-1.1-.03.01.07.79.08.36.09l-.13-.06c.28.17.27.16-.02-.04.04.19.09.1-.05-.1.19.28-.31-.65-.27-.53-.17-.48-.2-1.07-.21-1.58-.02-1.22.36-2.46.69-3.62.44-1.53.89-3.07,1.34-4.6.99-3.37,2.07-6.71,3.2-10.04.56-1.66,1.15-3.32,1.76-4.96.66-1.78,1.49-3.55,2.01-5.37.44-1.52-1.51-2.69-2.63-3.11-1.34-.5-3.49-.82-4.58.41-1.03,1.16-1.98,2.37-2.94,3.59-1.77,2.23,3.69,4.08,5.23,3.01h0Z"></path>
      <path class="cls-3" d="m1168.3,173.9c.85-.15,1.66-.33,2.33-.91s.91-1.6,1.2-2.42c.52-1.43.8-2.99,1.12-4.47.42-1.91-1.75-3.27-3.24-3.83-1.86-.7-4.04-.85-5.63.5-5.91,5.03-12.65,11.29-11.99,19.79.27,3.54,1.93,7.12,4.58,9.49,1.84,1.64,3.99,2.83,6.39,3.44,2.83.72,5.52.42,8.37.06.33-.04,1.57-.33,1.87-.15-.01,0-.93-.03-.41,0,.71.02.18.15.17,0l-.32-.06c.42.13.42.12,0-.03,0,.02-.53-.3-.01.01-.99-.59-.43-.28-.23-.13-.96-.73.01.17-.25-.25-.32-.5.11.43.02,0-.09-.41.07.36.07.41.04.41-.04.77-.15,1.17-.32,1.21-.84,2.39-1.27,3.57-.87,2.38-1.74,4.75-2.62,7.13-.73,2-1.64,4-2.11,6.09-.36,1.61-.55,3.45-.12,5.06.62,2.36,2.35,4.01,4.54,5.01,3.06,1.4,6.41,1.14,9.27-.55,1.95-1.15,3.88-2.34,5.81-3.53,4.41-2.73,8.79-5.55,12.94-8.66,2.01-1.5,3.93-3.11,5.83-4.75s3.93-3.38,5.54-5.43c.88-1.12-1.77-1.82-2.49-1.43-3.97,2.15-7.67,4.82-11.52,7.18s-7.47,4.56-11.32,6.64c-1.97,1.07-3.97,2.07-5.99,3.03-.98.47-1.97.92-2.97,1.36-.5.22-1.01.44-1.52.64-.36.15-1.04.27-1.35.48-.7.48-.02-.1-.08.06l.15.02c.56.06,1.11.2,1.63.44.18.08,1.45.79,1.31,1.1-.01.03-.45-.97-.28-.5.15.41-.03-.13-.05-.24-.03-.18-.07-.36-.09-.55-.12-.95-.11-.78,0-1.6.1-.76.28-1.51.51-2.24,1.4-4.37,3.18-8.65,4.77-12.96.73-1.98,1.66-4.09.98-6.22-.76-2.4-2.82-4.05-5.04-5.08-2.38-1.1-5.08-1.53-7.69-1.32-1.09.09-2.17.29-3.26.42-.23.03-.46.05-.7.07-.1,0-1.06.06-.55.05.45,0-.31-.03-.32-.03-.9-.02.82.18.24.06-1.1-.24.73.33-.02,0s.69.53.03.02c0,0-.47-.29-.48-.35,0-.04.6.62.27.23-.28-.33-.62-.66-.91-.99.43.47.05.06-.13-.21-.19-.31-.37-.62-.53-.94s-.31-.66-.45-1c.2.51-.16-.53-.2-.7-.9-3.48-.23-6.69,1.79-9.85,2.31-3.61,5.59-6.48,8.81-9.26l-8.87-3.33c-.32,2.11-.59,4.19-.63,6.34-.05,2.48,2.84,4.55,5.21,4.12h0Z"></path>
      <path class="cls-3" d="m1233.52,188c-.9.76-1.93,1.65-2.52,2.69-.35.62-1.03.92-1.24,1.67-.17.59-.07,1.48-.06,2.1l9.08.32c-2.94-6.03-10.81-8.53-17.08-7.73-6.69.86-11.61,5.39-15.23,10.82-1.75,2.64-3.8,5.56-4.59,8.67-.93,3.63.42,7.23,3.48,9.41,3.83,2.74,8.69,2.59,12.5,0,2.87-1.96,5.61-4.15,8.18-6.49,5.48-4.97,10.17-10.75,13.93-17.12,2.1-3.56-5.42-6.43-7.84-4.52-2.89,2.27-4.43,5.7-3.37,9.38,1.17,4.05,3.9,7.38,7.49,9.54-.92-.55.42.26.5.31.17.09.34.19.52.27.56.26,1.15.48,1.74.68,1.04.36,2.14.59,3.24.7,2.52.23,4.94-.08,7.34-.84s4.63-1.49,6.83-2.65,4.43-2.57,6.58-3.94c15.2-9.66,28.77-22.35,39.47-36.83,5.32-7.21,9.99-14.93,13.84-23.03,1.89-3.98,3.58-8.06,5.04-12.21s3.6-9.45.11-13.21c-3-3.23-8.71-4.12-12.76-2.7-2.16.76-4.41,2.17-5.95,3.88s-2.85,3.64-4.16,5.55c-5.71,8.32-11,17-15.45,26.05-8.77,17.85-15.3,36.81-19.34,56.28-.51,2.44-.97,4.89-1.4,7.35-.34,1.94,1.68,3.24,3.23,3.82,1.83.68,4.07.87,5.62-.5,6.79-5.99,13.59-11.98,20.38-17.97,1.52-1.34,2.99-2.76,4.61-3.98.74-.56,1.52-1.08,2.33-1.53,1.02-.57,1.26-.68,2.33-.91-.71.15.37.05.48,0-.18.1-.79-.1-.9-.12.12.02.74.25.13.01s-.08-.02.02.04c-.11-.06-.85-.57-.23-.11.09.06.44.39.07.04-.4-.38.07.1.14.18.1.11.2.22.29.34-.43-.52-.1-.14-.03,0,.14.27.31.53.44.81.09.19.17.38.25.57-.03-.06-.12-.35,0,0,.14.41.24.83.32,1.25,1.15,5.62-1.41,11.78-4.62,16.32-3.54,5.01-8.08,8.67-13.63,11.21-.4.18-.81.36-1.22.53-.15.06-.31.13-.46.19.45-.17-.22.08-.3.1-.78.27-1.57.53-2.37.76-.85.24-1.71.44-2.57.62-.43.09-.87.16-1.3.23.65-.1-.33.03-.53.05-.87.1-1.75.16-2.63.18-.38,0-.77,0-1.15,0-.76,0-.09,0,.06,0-.22-.01-.44-.02-.66-.04-.88-.06-1.76-.16-2.63-.3-.16-.03-.33-.06-.49-.08-.11-.02-.83-.18-.26-.05s-.12-.03-.26-.07c-.27-.06-.54-.13-.81-.2l2.48,4.62c7.32-4.99,14.96-9.54,22.99-13.3,3.97-1.86,8.01-3.59,12.1-5.16s8.51-2.94,12.76-4.44c4.58-1.62,9.32-3.36,14.08-4.36.6-.13.64-.67.31-1.08-.4-.5-1.25-.65-1.83-.53-4.59.96-9.24,1.59-13.82,2.62s-8.87,2.42-13.21,3.9c-8.74,2.98-17.24,6.6-25.58,10.55-4.8,2.27-9.51,4.73-14.13,7.36-2.77,1.58.87,4.16,2.48,4.62,14.3,4.05,30.59-1.68,39.61-13.39,4.11-5.33,7.35-12.64,6.48-19.51-.52-4.14-3.06-7.68-6.96-9.27-5.38-2.2-10.66-.9-15.13,2.55s-8.68,7.52-12.96,11.31-8.63,7.63-12.94,11.45l8.86,3.32c3.16-18.23,8.45-36.07,15.75-53.07,3.59-8.35,7.62-16.57,12.01-24.54,2.2-4,4.53-7.93,6.97-11.79,1.15-1.82,2.31-3.6,3.68-5.26,1.15-1.41,2.26-2.76,3.98-3.52.46-.2,1-.3,1.55-.32.02,0,.52.02.2,0,.1,0,.48.14.18.02,0,0,.43.2.23.07-.25-.16.39.25.13.06,1.43,1.05,1.63,2.99,1.32,4.76-.69,4.03-2.48,8.08-4.02,11.85-3.13,7.65-7.01,14.97-11.53,21.88-9.06,13.86-20.51,26.32-33.28,36.83-3.14,2.59-6.32,5.16-9.59,7.58-3.56,2.64-8.2,5.5-12.73,5.68-1.03.04-2.1,0-3.11-.21-.44-.09-.89-.24-1.32-.38.69.23-.21-.13-.44-.24.69.35-.18-.15-.37-.29-.15-.11-.29-.23-.44-.34.1.07.5.46.02.03-.24-.22-.48-.45-.7-.69-.11-.12-.86-1.06-.49-.54-.41-.57-.76-1.18-1.06-1.82-.08-.17-.39-.97-.34-.8.1.3-.03-.13-.04-.16-.07-.26-.14-.53-.2-.8-.13-.62-.19-1.24-.2-1.87,0-.35-.02-.71,0-1.07-.02.59.1-.49.13-.65.06-.29.15-.58.25-.87.06-.16.51-.99.19-.49.19-.3.39-.58.63-.85.11-.13.89-.83.36-.42l-7.84-4.52c-2.77,4.68-6.03,9.05-9.76,13.02-3.56,3.78-7.61,7.61-12.12,10.24-.85.5-.89.27.05.39.42.05.87.17,1.25.34-.15-.07,1.25.77.7.42-.36-.23.26.58-.13-.15-.11-.2-.22-.39-.31-.59.19.41-.07-.2-.1-.33-.07-.32-.13-.66-.14-.99-.03-2.43,1.58-4.81,2.8-6.8,2.61-4.27,5.55-8.21,10.03-10.36.63-.3.14-.05,0,0,.3-.1.61-.2.92-.28s.63-.14.94-.21c-.68.15-.2.02.22-.01.21-.02.43-.03.64-.04.21,0,.43,0,.64,0l-.55-.02c.16-.08.61.06.79.08,1.23.08-.77-.27.14,0,.2.06.41.12.6.17,1.02.26-.97-.49-.04-.02l.28.13c.36.19.37.18.03-.01-.33-.2-.33-.2.01.01.13.08.25.17.37.26.25.16.66.64,0-.03.21.22.42.44.63.65.46.47.07.1-.01-.04.22.35.43.71.61,1.08,1.26,2.58,9.2,4.67,9.08.32-.01-.4.07-.93.01-1.33-.11-.75-.68-1.34-1.13-1.91l.77,1.42c-.41-1.46-.62-2.91-.56-4.42.03-.86-1.38-1.52-2.02-1.71-.89-.26-1.89-.24-2.62.38h0Z"></path>
      <path class="cls-3" d="m1360.76,202.64c-.04-5.52-2.16-10.66-5.39-15.1-1.73-2.39-5.28-3.62-8.05-2.31-4.83,2.29-9.22,5.6-12.8,9.57-1.7,1.89-3.21,3.94-4.51,6.13s-2.72,4.71-3.38,7.26c-.59,2.29-.65,4.79.3,6.99,1.51,3.48,5.66,5.1,9.22,5.14s6.44-1.98,9.24-3.79c2.4-1.55,4.73-3.21,6.98-4.98,5.27-4.13,10.25-8.71,14.41-13.97,2.62-3.31-6.18-6.86-8.47-3.99-3.77,4.74-6.44,11.02-4.56,17.11.9,2.91,2.48,5.08,4.87,6.93s4.89,3.22,8.09,3.12,5.96-1.12,8.84-2.27,5.67-2.11,8.43-3.4c5.32-2.48,10.59-5.6,15.23-9.2,5.35-4.16,10.01-9.04,14.06-14.47,2.56-3.43-6.06-6.62-8.4-3.96-2.51,2.85-4.78,6-6.86,9.17s-4.12,6.79-5.44,10.51c-2.3,6.47-2.27,13.37.56,19.67,3.07,6.82,9.55,11.55,16.97,12.45,4.59.56,9.18-.4,13.63-1.46,3.65-.87,7.26-1.9,10.81-3.1,14.22-4.77,27.61-11.89,39.39-21.18,5.95-4.69,11.59-9.83,16.58-15.55s9.4-12.21,11.39-19.54,1.29-14.37-2.85-20.51c-2.01-2.98-4.54-5.69-7.58-7.64-3.24-2.07-7.25-3.17-10.88-3.23-1.47-.02-3.23.34-4.83.66-1.08.22-1.29,1.3-.59,2.05.84.91,2.29,1.24,3.48,1s2.44.02,3.27.25c.32.09.64.19.95.3.4.14-.05-.01-.11-.04.15.06.3.12.44.19.29.14.58.28.87.43.38.19-.08-.05-.13-.08.18.11.36.22.54.34.54.36,1.07.76,1.6,1.15.27.2.54.41.81.62-.52-.41.26.24.41.39.5.48.97.98,1.42,1.5.23.27.45.54.66.81.25.32.03.04-.02-.02.13.19.27.38.4.58,1.7,2.56,2.58,4.83,3.18,7.67.66,3.1.5,6.22-.17,9.3-1.44,6.62-5.03,12.45-9.26,17.64-4.31,5.29-9.27,10.09-14.49,14.49-10.24,8.64-22.22,15.71-34.79,20.67.34-.14-.51.2-.62.24-.38.15-.76.29-1.15.43-.83.31-1.66.61-2.5.9-1.61.56-3.23,1.08-4.86,1.57-3.3,1-6.65,1.87-10.02,2.57-1.93.4-3.21.64-5.27.6-.54,0-.07-.01.03,0-.23-.02-.47-.04-.7-.07-.18-.02-.54-.01-.7-.1,0,0,.82.23.33.07-.3-.1-.62-.17-.93-.26-.06-.02-.4-.18-.45-.15.14-.07,1.01.44.34.1-.28-.14-.57-.27-.85-.41-.77-.38.66.46-.04-.04-.25-.18-.52-.35-.77-.54-.12-.09-.24-.2-.37-.29-.47-.3.49.5.11.09-.44-.46-.91-.87-1.33-1.35-.21-.24-.41-.49-.61-.74-.27-.33.06.08.09.13-.12-.18-.25-.35-.37-.53-2.98-4.49-3.93-10.1-2.82-15.39,1.43-6.81,5.23-12.69,9.35-18.18,1.06-1.41,2.16-2.77,3.17-4.22l-8.4-3.96c-2.58,4.46-5.66,8.45-9.01,12.35-3.27,3.82-6.83,7.44-10.88,10.44s-8.52,6.16-13.39,7.66c-2.59.8-5.18,1.25-7.63-.19-1.75-1.02-2.35-2.98-2.82-4.84-1.45-5.69,1.99-11.22,5.64-15.29l-8.47-3.99c-6.75,7.59-14.19,14.31-22.94,19.53-.55.33-1.11.68-1.71.93.12-.05.58-.18-.31.11-.51.16-.28-.08-.16.04-.05-.05,1.59.23,1.92.39.38.17.69.39.98.68-.55-.55.13.48,0,.04-.06-.2-.22-.4-.3-.61.26.62-.07-.53-.1-.73-.06-.45-.08-.92-.06-1.38-.02.41.11-.7.13-.79.09-.52.22-1.03.37-1.53,1.27-4.07,3.79-7.79,6.58-10.99,3.38-3.87,7.17-6.73,11.85-8.96l-8.05-2.31c2.95,4.05,4.86,8.82,6.08,13.67.72,2.88,8.17,4.95,8.15.97h0Z"></path>
      <path class="cls-3" d="m1427.61,152.84c-1.65.19-3.35.6-4.71,1.61-.61.45-1.25.94-1.72,1.54-.31.4-.46.82-.56,1.29s-.19.97-.07,1.44c.13.5.37.95.73,1.33l.7.6c.43.31.9.55,1.4.7.69.26,1.37.4,2.11.43s1.52-.05,2.18-.41c.47-.26.84-.64,1.25-.97l-.61.48c.46-.36.95-.65,1.35-1.08.21-.23.45-.45.7-.65l-.64.51c.48-.38,1.01-.69,1.58-.91l-.88.34c.4-.15.8-.26,1.22-.33l-1.06.16c.12-.02.23-.03.35-.04.53,0,1.03-.11,1.5-.33.43-.12.79-.35,1.09-.69.52-.63.55-1.54.14-2.23l-.56-.76c-.53-.54-1.15-.97-1.84-1.29l-1.2-.45c-.8-.23-1.61-.33-2.44-.3h0Z"></path>
      <path class="cls-3" d="m1131.3,160.61c.57.09,1.29.07,1.85-.09s.89-.37,1.32-.75l-.47.37.03-.02-.64.25.45-.12.85-.33c.39-.18.66-.45.81-.83.17-.2.24-.44.2-.7.07-.4-.01-.77-.25-1.13-.6-1.21-1.79-2.03-2.96-2.61-.53-.26-.84-.36-1.29-.47-.4-.1-.92-.22-1.33-.26-.45-.05-.95-.07-1.41-.03-.8.07-1.36.24-2.09.55-.12.05-.24.11-.35.18-.41.27-.83.59-1.14.98s-.52.84-.75,1.27c-.13.24-.23.48-.34.73-.09.2-.07.24-.08.53-.05.16-.05.32,0,.47l.28.79c.3.65.97,1.17,1.55,1.57l-1.25-1.32.04.07-.21-1.38c-.05.41-.14.8-.35,1.16l.3-.55c-.15.26-.3.51-.44.77l.29-.53c-.11.19-.23.37-.4.5l.47-.37c-.23.17-.43.35-.63.53l.43-.34s-.07.05-.11.06l.55-.22s-.04.01-.07.02l.64-.1s-.06,0-.08,0l.69.02h-.05c-.55-.04-1.3-.06-1.79.26-.36.24-.75.64-.61,1.13.28.98,1.06,1.59,1.95,2.01,1.3.61,2.67.68,4.05.42,1.17-.22,2.26-.94,3.03-1.84l-1.36.77.08-.02-.96.14c.76.03,1.54-.15,2.22-.49s.95-.87,1.2-1.5c.12-.29.24-.58.39-.86l-.38.68c.16-.29.36-.56.62-.77l-.65.52c.13-.1.27-.19.43-.25l-.88.35c.07-.02.13-.04.2-.05l-1.06.16c.05,0,.1,0,.15,0l-1.18-.04s.1.01.15.02l-1.26-.25c.08.02.16.04.24.06l-1.19-.45c.06.03.13.06.19.09l-1.01-.58c.08.05.15.1.22.16l-.79-.68c.07.06.13.13.2.19.52.51,1.12.91,1.77,1.24.56.28,1.15.46,1.76.56.24.08.49.12.73.13l-3.62-2.05c.04.06.08.12.1.19l-.2-.56s0,.07,0,.11l.03-.54c0,.06-.02.11-.04.16l.25-.46c-.03.05-.06.09-.11.13l.43-.34-.03.02c-.28.19-.57.44-.67.78-.13.46.07.91.34,1.27.69.93,1.88,1.38,2.99,1.55h0Z"></path>
    </g>
  </g>
</svg></svg></g></g></svg>